<svg xmlns="http://www.w3.org/2000/svg" width="51.079" height="47.674" viewBox="0 0 51.079 47.674">
  <g id="mortarboard" transform="translate(-535 -187.068)">
    <g id="Grupo_2" data-name="Grupo 2" transform="translate(535 187.068)">
      <g id="Grupo_1" data-name="Grupo 1" transform="translate(0 0)">
        <path id="Caminho_1" data-name="Caminho 1" d="M343.239,443.752a.849.849,0,0,0-1.032.619l-.851,3.405a.851.851,0,0,0,.62,1.033.826.826,0,0,0,.207.026.852.852,0,0,0,.825-.644l.851-3.405A.852.852,0,0,0,343.239,443.752Z" transform="translate(-307.278 -401.16)" fill="#313185"/>
        <path id="Caminho_2" data-name="Caminho 2" d="M25.54,157.836a.843.843,0,0,0,.325-.065l9.365-3.875a.852.852,0,0,0-.652-1.573l-9.038,3.741L1.7,146.2v-.283a.851.851,0,0,0-1.7,0v.851a.85.85,0,0,0,.526.787l24.688,10.216A.843.843,0,0,0,25.54,157.836Z" transform="translate(0 -132.296)" fill="#313185"/>
        <path id="Caminho_3" data-name="Caminho 3" d="M112.489,243.378a.85.85,0,0,0-1.14-.386,19.841,19.841,0,0,1-8.136,1.856V237.21a.851.851,0,1,0-1.7,0v7.63c-10.571-.337-13.982-6.741-14.472-7.807v-5.782a.851.851,0,0,0-1.7,0v5.959a.861.861,0,0,0,.06.317c.148.369,3.771,9.048,16.966,9.048a21.879,21.879,0,0,0,9.742-2.057A.849.849,0,0,0,112.489,243.378Z" transform="translate(-76.822 -209.117)" fill="#313185"/>
        <path id="Caminho_4" data-name="Caminho 4" d="M376.318,452.266a.851.851,0,0,0-.851.851v2.554a.851.851,0,0,0,1.7,0v-2.554A.851.851,0,0,0,376.318,452.266Z" transform="translate(-338.009 -408.849)" fill="#313185"/>
        <path id="Caminho_5" data-name="Caminho 5" d="M50.228,29.837a.851.851,0,0,0-.851.851v.281l-10.216,4.2V33.636l11.392-4.715a.851.851,0,0,0,0-1.573L25.865,17.132a.852.852,0,0,0-.65,0L.526,27.348a.851.851,0,0,0,0,1.573L25.214,39.137a.849.849,0,0,0,.65,0l8.927-3.694a.851.851,0,1,0-.65-1.572l-8.6,3.559L3.078,28.134,25.54,18.84,48,28.134l-9.774,4.045-9.362-3.5a2.033,2.033,0,0,0,.079-.549c0-1.432-1.5-2.554-3.405-2.554s-3.405,1.122-3.405,2.554,1.5,2.554,3.405,2.554a4.115,4.115,0,0,0,2.2-.607l9.715,3.628v2.728h0V54.682a2.554,2.554,0,1,0,1.7,0V49.85a10.343,10.343,0,0,0,3.358-4.411.861.861,0,0,0,.047-.278V39.2a.851.851,0,1,0-1.7,0V45a8.709,8.709,0,0,1-1.7,2.572V37.015l11.392-4.688a.851.851,0,0,0,.527-.787v-.851A.851.851,0,0,0,50.228,29.837ZM25.54,28.986c-1.039,0-1.7-.5-1.7-.851s.663-.851,1.7-.851,1.7.5,1.7.851S26.579,28.986,25.54,28.986Zm12.77,28.945a.851.851,0,1,1,.851-.851A.852.852,0,0,1,38.309,57.931Z" transform="translate(0 -17.068)" fill="#313185"/>
        <path id="Caminho_6" data-name="Caminho 6" d="M402.743,444.373a.851.851,0,0,0-1.652.414l.851,3.405a.852.852,0,0,0,.825.644.826.826,0,0,0,.207-.026.851.851,0,0,0,.62-1.033Z" transform="translate(-361.054 -401.163)" fill="#313185"/>
      </g>
    </g>
  </g>
</svg>
