<svg width="860.168" height="857.663" viewBox="0 0 860.168 857.663">
  <g id="Grupo_1" data-name="Grupo 1" transform="translate(-530.16 -111.27)">
    <g id="Elipse_16" data-name="Elipse 16" transform="translate(1240.407 529.249) rotate(43)" fill="#6960ff" stroke="#1d06ff" stroke-width="2">
      <ellipse cx="89" cy="199.5" rx="89" ry="199.5" stroke="none"/>
      <ellipse cx="89" cy="199.5" rx="88" ry="198.5" fill="none"/>
    </g>
    <g id="Elipse_15" data-name="Elipse 15" transform="translate(1256.097 488.338) rotate(43)" fill="#6960ff" stroke="#1d06ff" stroke-width="2">
      <ellipse cx="89" cy="238" rx="89" ry="238" stroke="none"/>
      <ellipse cx="89" cy="238" rx="88" ry="237" fill="none"/>
    </g>
    <g id="Elipse_14" data-name="Elipse 14" transform="translate(1260.147 455.054) rotate(43)" fill="#6960ff" stroke="#1d06ff" stroke-width="2">
      <ellipse cx="89" cy="266" rx="89" ry="266" stroke="none"/>
      <ellipse cx="89" cy="266" rx="88" ry="265" fill="none"/>
    </g>
    <g id="Elipse_13" data-name="Elipse 13" transform="translate(1259.561 415.308) rotate(43)" fill="#6960ff" stroke="#1d06ff" stroke-width="2">
      <ellipse cx="89" cy="295.5" rx="89" ry="295.5" stroke="none"/>
      <ellipse cx="89" cy="295.5" rx="88" ry="294.5" fill="none"/>
    </g>
    <g id="Elipse_12" data-name="Elipse 12" transform="translate(1249.569 361.128) rotate(43)" fill="#6960ff" stroke="#1d06ff" stroke-width="2">
      <ellipse cx="89" cy="328.5" rx="89" ry="328.5" stroke="none"/>
      <ellipse cx="89" cy="328.5" rx="88" ry="327.5" fill="none"/>
    </g>
    <g id="Elipse_11" data-name="Elipse 11" transform="translate(1220.413 292.672) rotate(43)" fill="#6960ff" stroke="#1d06ff" stroke-width="2">
      <ellipse cx="98" cy="359" rx="98" ry="359" stroke="none"/>
      <ellipse cx="98" cy="359" rx="97" ry="358" fill="none"/>
    </g>
    <g id="Elipse_10" data-name="Elipse 10" transform="translate(1179.279 232.165) rotate(43)" fill="#6960ff" stroke="#1d06ff" stroke-width="2">
      <ellipse cx="107.5" cy="373.5" rx="107.5" ry="373.5" stroke="none"/>
      <ellipse cx="107.5" cy="373.5" rx="106.5" ry="372.5" fill="none"/>
    </g>
    <g id="Elipse_9" data-name="Elipse 9" transform="translate(1143.735 193.314) rotate(43)" fill="#6960ff" stroke="#1d06ff" stroke-width="2">
      <ellipse cx="107.5" cy="379.5" rx="107.5" ry="379.5" stroke="none"/>
      <ellipse cx="107.5" cy="379.5" rx="106.5" ry="378.5" fill="none"/>
    </g>
    <g id="Elipse_8" data-name="Elipse 8" transform="translate(1101.688 156.508) rotate(43)" fill="#6960ff" stroke="#1d06ff" stroke-width="2">
      <ellipse cx="107.5" cy="376" rx="107.5" ry="376" stroke="none"/>
      <ellipse cx="107.5" cy="376" rx="106.5" ry="375" fill="none"/>
    </g>
    <g id="Elipse_6" data-name="Elipse 6" transform="translate(1061.141 132.747) rotate(43)" fill="#6960ff" stroke="#1d06ff" stroke-width="2">
      <ellipse cx="102.5" cy="367" rx="102.5" ry="367" stroke="none"/>
      <ellipse cx="102.5" cy="367" rx="101.5" ry="366" fill="none"/>
    </g>
    <g id="Elipse_5" data-name="Elipse 5" transform="translate(1027.547 124.18) rotate(43)" fill="#6960ff" stroke="#1d06ff" stroke-width="2">
      <ellipse cx="88.5" cy="350" rx="88.5" ry="350" stroke="none"/>
      <ellipse cx="88.5" cy="350" rx="87.5" ry="349" fill="none"/>
    </g>
    <g id="Elipse_4" data-name="Elipse 4" transform="translate(972.543 111.27) rotate(43)" fill="#6960ff" stroke="#1d06ff" stroke-width="2">
      <ellipse cx="85" cy="322.5" rx="85" ry="322.5" stroke="none"/>
      <ellipse cx="85" cy="322.5" rx="84" ry="321.5" fill="none"/>
    </g>
    <g id="Elipse_3" data-name="Elipse 3" transform="translate(917.535 111.449) rotate(43)" fill="#6960ff" stroke="#1d06ff" stroke-width="2">
      <ellipse cx="76.5" cy="284" rx="76.5" ry="284" stroke="none"/>
      <ellipse cx="76.5" cy="284" rx="75.5" ry="283" fill="none"/>
    </g>
    <g id="Elipse_2" data-name="Elipse 2" transform="translate(868.753 120.748) rotate(43)" fill="#6960ff" stroke="#1d06ff" stroke-width="2">
      <ellipse cx="64.5" cy="243.5" rx="64.5" ry="243.5" stroke="none"/>
      <ellipse cx="64.5" cy="243.5" rx="63.5" ry="242.5" fill="none"/>
    </g>
    <g id="Elipse_1" data-name="Elipse 1" transform="translate(782.055 168.839) rotate(43)" fill="#6960ff" stroke="#1d06ff" stroke-width="2">
      <ellipse cx="55" cy="154.5" rx="55" ry="154.5" stroke="none"/>
      <ellipse cx="55" cy="154.5" rx="54" ry="153.5" fill="none"/>
    </g>
  </g>
</svg>
