<svg xmlns="http://www.w3.org/2000/svg" width="47.096" height="33.193" viewBox="0 0 47.096 33.193">
  <path id="Caminho_7" data-name="Caminho 7" d="M51.3,96H11.8A3.99,3.99,0,0,0,8,100.149v24.9a3.99,3.99,0,0,0,3.8,4.149H51.3a3.99,3.99,0,0,0,3.8-4.149v-24.9A3.99,3.99,0,0,0,51.3,96ZM9.519,100.149A2.394,2.394,0,0,1,11.8,97.66H51.3a2.394,2.394,0,0,1,2.279,2.49v.83H9.519Zm44.058,24.9a2.394,2.394,0,0,1-2.279,2.49H11.8a2.394,2.394,0,0,1-2.279-2.49V102.639H53.577Z" transform="translate(-8 -96)" fill="#1e1e87"/>
  <path id="Caminho_8" data-name="Caminho 8" d="M43.319,120H40.83a.83.83,0,1,0,0,1.66h2.49a.83.83,0,1,0,0-1.66Z" transform="translate(-36.681 -117.51)" fill="#1e1e87"/>
  <path id="Caminho_9" data-name="Caminho 9" d="M91.319,120H88.83a.83.83,0,0,0,0,1.66h2.49a.83.83,0,0,0,0-1.66Z" transform="translate(-80.465 -117.51)" fill="#1e1e87"/>
  <path id="Caminho_10" data-name="Caminho 10" d="M139.319,120h-2.49a.83.83,0,0,0,0,1.66h2.49a.83.83,0,0,0,0-1.66Z" transform="translate(-123.945 -117.51)" fill="#1e1e87"/>
  <text id="x" transform="translate(4 21.295)" fill="#1e1e87" font-size="6" font-family="Arial-Black, Arial" font-weight="800" letter-spacing="0.2em"><tspan x="0" y="0">x</tspan></text>
  <text id="x-2" data-name="x" transform="translate(7 21.295)" fill="#1e1e87" font-size="6" font-family="Arial-Black, Arial" font-weight="800" letter-spacing="0.2em"><tspan x="0" y="0">x</tspan></text>
  <text id="x-3" data-name="x" transform="translate(11 21.295)" fill="#1e1e87" font-size="6" font-family="Arial-Black, Arial" font-weight="800" letter-spacing="0.2em"><tspan x="0" y="0">x</tspan></text>
  <text id="x-4" data-name="x" transform="translate(15 21.295)" fill="#1e1e87" font-size="6" font-family="Arial-Black, Arial" font-weight="800" letter-spacing="0.2em"><tspan x="0" y="0">x</tspan></text>
  <text id="x-5" data-name="x" transform="translate(19 21.295)" fill="#1e1e87" font-size="6" font-family="Arial-Black, Arial" font-weight="800" letter-spacing="0.2em"><tspan x="0" y="0">x</tspan></text>
  <text id="x-6" data-name="x" transform="translate(23 21.295)" fill="#1e1e87" font-size="6" font-family="Arial-Black, Arial" font-weight="800" letter-spacing="0.2em"><tspan x="0" y="0">x</tspan></text>
  <text id="_-" data-name="-" transform="translate(27 21.295)" fill="#1e1e87" font-size="6" font-family="Arial-Black, Arial" font-weight="800" letter-spacing="0.2em"><tspan x="0" y="0">-</tspan></text>
  <text id="x-7" data-name="x" transform="translate(29 21.295)" fill="#1e1e87" font-size="6" font-family="Arial-Black, Arial" font-weight="800" letter-spacing="0.2em"><tspan x="0" y="0">x</tspan></text>
  <text id="x-8" data-name="x" transform="translate(33 21.295)" fill="#1e1e87" font-size="6" font-family="Arial-Black, Arial" font-weight="800" letter-spacing="0.2em"><tspan x="0" y="0">x</tspan></text>
</svg>
