<svg viewBox="0 0 732 728">
  <g id="Grupo_1" data-name="Grupo 1" transform="translate(-594 -176)">
    <ellipse id="Elipse_1" data-name="Elipse 1" cx="366" cy="364" rx="366" ry="364" transform="translate(594 176)" fill="#3b5cff"/>
    <path id="Caminho_1" data-name="Caminho 1" d="M613.268,620.994c-20.263-166.9,39.521-357.241,84.988-410.455,13.878,211.466,50.22,300.275,98.279,376.312,15.825-43.08,117.858-311.137,238.257-426.841,260.315,46.666,301.422,401.35,136.273,533.661-19.781-82.2-44.838-214.08-102.917-288.045-152.485,89.791-186.333,185.621-251.1,293.6-101.4-113.25-112.788-186.914-144.915-241.61C653.706,492.087,642.679,519.154,613.268,620.994Z" transform="translate(34 71)" fill="#fff"/>
  </g>
</svg>
